<svg xmlns="http://www.w3.org/2000/svg" viewBox="0 0 50 50">
  <path d="M22.5 4C16.699219 4 12 8.699219 12 14.5L12 15C7.601563 15 4 18.601563 4 23C4 27.398438 7.601563 31 12 31L18.699219 31L20 29L16 29L23 20L28 20L21 27L26 27L21.597656 31L25.902344 31L29 27L34.097656 27L30.097656 31L36 31C41.5 31 46 26.5 46 21C46 15.5 41.5 11 36 11C34.800781 11 33.699219 11.199219 32.597656 11.597656C31.300781 7.101563 27.300781 4 22.5 4 Z M 30.097656 31L25.902344 31L22 36L26.097656 36L21 44L32.097656 34L27.097656 34 Z M 21.597656 31L18.699219 31L14.902344 37Z" fill="#FFFFFF" />
</svg>