<svg xmlns="http://www.w3.org/2000/svg" viewBox="0 0 50 50">
  <path d="M22.5 5C16.710938 5 12 9.710938 12 15.5C12 15.664063 11.988281 15.832031 12 16C7.589844 16 4 19.589844 4 24C4 28.410156 7.589844 32 12 32L16.625 32L16.59375 32.125C16.460938 32.472656 16.535156 32.863281 16.78125 33.144531C17.027344 33.421875 17.40625 33.539063 17.769531 33.449219C18.128906 33.363281 18.410156 33.078125 18.5 32.71875L18.75 32L23.6875 32C23.6875 32.503906 24.0625 32.929688 24.5625 32.992188C25.0625 33.058594 25.53125 32.738281 25.65625 32.25L25.75 32L30.625 32L30.59375 32.125C30.460938 32.472656 30.535156 32.863281 30.78125 33.144531C31.027344 33.421875 31.40625 33.539063 31.769531 33.449219C32.128906 33.363281 32.410156 33.078125 32.5 32.71875L32.75 32L36 32C41.515625 32 46 27.515625 46 22C46 16.484375 41.515625 12 36 12C34.820313 12 33.6875 12.191406 32.59375 12.59375C31.324219 8.121094 27.261719 5 22.5 5 Z M 23.59375 34.59375L22.78125 35L22.625 35.3125L22.0625 37.125L22.21875 38L23 38.40625L23.8125 38.03125L23.96875 37.71875L24.53125 35.90625L24.40625 35 Z M 16.0625 36.03125C16.019531 36.039063 15.976563 36.050781 15.9375 36.0625C15.574219 36.144531 15.285156 36.421875 15.1875 36.78125L14.75 38.21875C14.601563 38.574219 14.667969 38.980469 14.921875 39.269531C15.175781 39.558594 15.570313 39.675781 15.941406 39.570313C16.3125 39.464844 16.589844 39.160156 16.65625 38.78125L17.09375 37.375C17.214844 37.050781 17.160156 36.691406 16.949219 36.417969C16.738281 36.144531 16.40625 36 16.0625 36.03125 Z M 30.0625 36.03125C30.019531 36.039063 29.976563 36.050781 29.9375 36.0625C29.574219 36.144531 29.285156 36.421875 29.1875 36.78125L28.75 38.21875C28.601563 38.574219 28.667969 38.980469 28.921875 39.269531C29.175781 39.558594 29.570313 39.675781 29.941406 39.570313C30.3125 39.464844 30.589844 39.160156 30.65625 38.78125L31.09375 37.375C31.214844 37.050781 31.160156 36.691406 30.949219 36.417969C30.738281 36.144531 30.40625 36 30.0625 36.03125 Z M 21.8125 40.03125C21.769531 40.039063 21.726563 40.050781 21.6875 40.0625C21.324219 40.144531 21.035156 40.421875 20.9375 40.78125L20.65625 41.71875C20.523438 42.066406 20.597656 42.457031 20.84375 42.738281C21.089844 43.015625 21.46875 43.132813 21.832031 43.042969C22.191406 42.957031 22.472656 42.671875 22.5625 42.3125L22.875 41.34375C22.984375 41.019531 22.917969 40.660156 22.703125 40.394531C22.488281 40.128906 22.152344 39.992188 21.8125 40.03125Z" fill="#FFFFFF" />
</svg>