<svg xmlns="http://www.w3.org/2000/svg" viewBox="0 0 50 50">
  <path d="M22.5 5C16.710938 5 12 9.710938 12 15.5C12 15.664063 11.988281 15.832031 12 16C7.589844 16 4 19.589844 4 24C4 28.410156 7.589844 32 12 32L18.625 32L18.59375 32.125C18.460938 32.472656 18.535156 32.863281 18.78125 33.144531C19.027344 33.421875 19.40625 33.539063 19.769531 33.449219C20.128906 33.363281 20.410156 33.078125 20.5 32.71875L20.75 32L24.6875 32C24.6875 32.503906 25.0625 32.929688 25.5625 32.992188C26.0625 33.058594 26.53125 32.738281 26.65625 32.25L26.75 32L36 32C41.515625 32 46 27.515625 46 22C46 16.484375 41.515625 12 36 12C34.820313 12 33.6875 12.195313 32.59375 12.59375C31.328125 8.121094 27.261719 5 22.5 5 Z M 24.59375 34.59375L23.78125 35L23.625 35.3125L23.0625 37.125L23.21875 38L24 38.40625L24.8125 38.03125L24.96875 37.71875L25.53125 35.90625L25.40625 35 Z M 18.0625 36.03125C18.019531 36.039063 17.976563 36.050781 17.9375 36.0625C17.574219 36.144531 17.285156 36.421875 17.1875 36.78125L16.75 38.21875C16.601563 38.574219 16.667969 38.980469 16.921875 39.269531C17.175781 39.558594 17.570313 39.675781 17.941406 39.570313C18.3125 39.464844 18.589844 39.160156 18.65625 38.78125L19.09375 37.375C19.214844 37.050781 19.160156 36.691406 18.949219 36.417969C18.738281 36.144531 18.40625 36 18.0625 36.03125 Z M 22.8125 40.03125C22.769531 40.039063 22.726563 40.050781 22.6875 40.0625C22.324219 40.144531 22.035156 40.421875 21.9375 40.78125L21.65625 41.71875C21.523438 42.066406 21.597656 42.457031 21.84375 42.738281C22.089844 43.015625 22.46875 43.132813 22.832031 43.042969C23.191406 42.957031 23.472656 42.671875 23.5625 42.3125L23.875 41.34375C23.984375 41.019531 23.917969 40.660156 23.703125 40.394531C23.488281 40.128906 23.152344 39.992188 22.8125 40.03125Z" fill="#FFFFFF" />
</svg>