<svg xmlns="http://www.w3.org/2000/svg" viewBox="0 0 50 50">
  <path d="M22.5 5C16.710938 5 12 9.710938 12 15.5C12 15.664063 11.988281 15.832031 12 16C7.589844 16 4 19.589844 4 24C4 28.410156 7.589844 32 12 32L22.5 32C21.949219 32 21.5 31.554688 21.5 31C21.5 30.445313 21.949219 30 22.5 30L23 30L23 26.71875L20.15625 28.375L20.40625 28.8125C20.683594 29.292969 20.539063 29.878906 20.0625 30.15625C19.90625 30.246094 19.730469 30.3125 19.5625 30.3125C19.214844 30.3125 18.871094 30.132813 18.6875 29.8125L18.4375 29.375L17.5625 29.875C17.40625 29.964844 17.230469 30 17.0625 30C16.714844 30 16.402344 29.820313 16.21875 29.5C15.941406 29.019531 16.085938 28.402344 16.5625 28.125L17.4375 27.625L17.1875 27.1875C16.910156 26.707031 17.085938 26.121094 17.5625 25.84375C18.042969 25.566406 18.628906 25.707031 18.90625 26.1875L19.15625 26.625L22 25L19.15625 23.375L18.90625 23.8125C18.71875 24.132813 18.410156 24.3125 18.0625 24.3125C17.894531 24.3125 17.71875 24.246094 17.5625 24.15625C17.082031 23.878906 16.910156 23.289063 17.1875 22.8125L17.4375 22.375L16.5625 21.875C16.085938 21.597656 15.941406 20.976563 16.21875 20.5C16.496094 20.023438 17.082031 19.847656 17.5625 20.125L18.4375 20.625L18.6875 20.1875C18.964844 19.707031 19.585938 19.566406 20.0625 19.84375C20.542969 20.121094 20.683594 20.710938 20.40625 21.1875L20.15625 21.625L23 23.28125L23 20L22.5 20C21.949219 20 21.5 19.550781 21.5 19C21.5 18.449219 21.949219 18 22.5 18L23 18L23 17C23 16.449219 23.449219 16 24 16C24.550781 16 25 16.449219 25 17L25 18L25.5 18C26.054688 18 26.5 18.449219 26.5 19C26.5 19.550781 26.054688 20 25.5 20L25 20L25 23.28125L27.84375 21.625L27.59375 21.1875C27.316406 20.710938 27.460938 20.121094 27.9375 19.84375C28.414063 19.570313 29.035156 19.710938 29.3125 20.1875L29.5625 20.625L30.4375 20.125C30.914063 19.847656 31.503906 20.023438 31.78125 20.5C32.058594 20.980469 31.914063 21.597656 31.4375 21.875L30.5625 22.375L30.8125 22.8125C31.089844 23.289063 30.914063 23.878906 30.4375 24.15625C30.28125 24.246094 30.109375 24.3125 29.9375 24.3125C29.589844 24.3125 29.277344 24.132813 29.09375 23.8125L28.84375 23.375L26 25L28.84375 26.625L29.09375 26.1875C29.371094 25.707031 29.960938 25.566406 30.4375 25.84375C30.914063 26.121094 31.089844 26.710938 30.8125 27.1875L30.5625 27.625L31.4375 28.125C31.917969 28.402344 32.058594 29.023438 31.78125 29.5C31.59375 29.820313 31.285156 30 30.9375 30C30.765625 30 30.59375 29.964844 30.4375 29.875L29.5625 29.375L29.3125 29.8125C29.125 30.132813 28.785156 30.3125 28.4375 30.3125C28.265625 30.3125 28.09375 30.246094 27.9375 30.15625C27.457031 29.878906 27.316406 29.289063 27.59375 28.8125L27.84375 28.375L25 26.71875L25 30L25.5 30C26.054688 30 26.5 30.445313 26.5 31C26.5 31.554688 26.054688 32 25.5 32L36 32C41.515625 32 46 27.515625 46 22C46 16.484375 41.515625 12 36 12C34.820313 12 33.6875 12.195313 32.59375 12.59375C31.328125 8.121094 27.261719 5 22.5 5 Z M 23 32L23 33C23 33.554688 23.449219 34 24 34C24.550781 34 25 33.554688 25 33L25 32 Z M 40.1875 34C40.058594 34 39.910156 34.011719 39.78125 34.0625C39.269531 34.273438 39.039063 34.863281 39.25 35.375L39.6875 36.46875L38.625 36.90625C38.113281 37.117188 37.851563 37.707031 38.0625 38.21875C38.222656 38.605469 38.605469 38.8125 39 38.8125C39.128906 38.8125 39.25 38.800781 39.375 38.75L40.46875 38.3125L40.90625 39.375C41.066406 39.761719 41.417969 40 41.8125 40C41.941406 40 42.09375 39.988281 42.21875 39.9375C42.730469 39.726563 42.960938 39.136719 42.75 38.625L42.3125 37.53125L43.375 37.09375C43.886719 36.882813 44.148438 36.292969 43.9375 35.78125C43.726563 35.269531 43.132813 35.039063 42.625 35.25L41.53125 35.6875L41.09375 34.625C40.933594 34.242188 40.578125 34.003906 40.1875 34 Z M 8.1875 35C8.058594 35 7.910156 35.007813 7.78125 35.0625C7.269531 35.273438 7.039063 35.863281 7.25 36.375L7.6875 37.46875L6.625 37.90625C6.113281 38.117188 5.851563 38.707031 6.0625 39.21875C6.222656 39.605469 6.605469 39.8125 7 39.8125C7.128906 39.8125 7.25 39.800781 7.375 39.75L8.46875 39.3125L8.90625 40.375C9.066406 40.761719 9.449219 41 9.84375 41C9.972656 41 10.09375 40.988281 10.21875 40.9375C10.730469 40.726563 10.960938 40.136719 10.75 39.625L10.3125 38.53125L11.375 38.09375C11.886719 37.882813 12.148438 37.292969 11.9375 36.78125C11.726563 36.269531 11.136719 36.039063 10.625 36.25L9.53125 36.6875L9.09375 35.625C8.933594 35.242188 8.578125 35.003906 8.1875 35 Z M 25.1875 39C25.058594 39 24.910156 39.007813 24.78125 39.0625C24.269531 39.273438 24.039063 39.863281 24.25 40.375L24.6875 41.46875L23.625 41.90625C23.113281 42.117188 22.851563 42.707031 23.0625 43.21875C23.222656 43.605469 23.605469 43.8125 24 43.8125C24.128906 43.8125 24.246094 43.800781 24.375 43.75L25.46875 43.3125L25.90625 44.375C26.066406 44.761719 26.417969 45 26.8125 45C26.941406 45 27.09375 44.988281 27.21875 44.9375C27.730469 44.726563 27.960938 44.136719 27.75 43.625L27.3125 42.53125L28.375 42.09375C28.886719 41.882813 29.148438 41.292969 28.9375 40.78125C28.726563 40.269531 28.132813 40.039063 27.625 40.25L26.53125 40.6875L26.09375 39.625C25.933594 39.242188 25.578125 39.003906 25.1875 39 Z M 15.1875 43C15.058594 43 14.910156 43.007813 14.78125 43.0625C14.269531 43.273438 14.039063 43.863281 14.25 44.375L14.6875 45.46875L13.625 45.90625C13.113281 46.117188 12.851563 46.707031 13.0625 47.21875C13.222656 47.605469 13.605469 47.8125 14 47.8125C14.128906 47.8125 14.25 47.800781 14.375 47.75L15.46875 47.3125L15.90625 48.375C16.066406 48.761719 16.449219 49 16.84375 49C16.972656 49 17.09375 48.988281 17.21875 48.9375C17.730469 48.726563 17.960938 48.136719 17.75 47.625L17.3125 46.53125L18.375 46.09375C18.886719 45.882813 19.148438 45.292969 18.9375 44.78125C18.726563 44.269531 18.132813 44.039063 17.625 44.25L16.53125 44.6875L16.09375 43.625C15.933594 43.242188 15.578125 43.003906 15.1875 43 Z M 35.1875 43C35.058594 43 34.910156 43.007813 34.78125 43.0625C34.269531 43.273438 34.039063 43.863281 34.25 44.375L34.6875 45.46875L33.625 45.90625C33.113281 46.117188 32.851563 46.707031 33.0625 47.21875C33.222656 47.605469 33.605469 47.8125 34 47.8125C34.128906 47.8125 34.25 47.800781 34.375 47.75L35.46875 47.3125L35.90625 48.375C36.066406 48.761719 36.417969 49 36.8125 49C36.941406 49 37.09375 48.988281 37.21875 48.9375C37.730469 48.726563 37.960938 48.136719 37.75 47.625L37.3125 46.53125L38.375 46.09375C38.886719 45.882813 39.148438 45.292969 38.9375 44.78125C38.726563 44.269531 38.136719 44.039063 37.625 44.25L36.53125 44.6875L36.09375 43.625C35.933594 43.242188 35.578125 43.003906 35.1875 43Z" fill="#FFFFFF" />
</svg>