<svg xmlns="http://www.w3.org/2000/svg" viewBox="0 0 50 50">
  <path d="M24.90625 -0.03125C24.863281 -0.0234375 24.820313 -0.0117188 24.78125 0C24.316406 0.105469 23.988281 0.523438 24 1L24 4.03125C10.617188 4.46875 1 13.5625 1 26C1 26.445313 1.292969 26.84375 1.71875 26.96875C1.8125 26.996094 1.90625 27 2 27C2.335938 27 2.65625 26.824219 2.84375 26.53125C2.867188 26.496094 5.152344 23 10 23C12.671875 23 15.164063 24.335938 16.65625 26.5625C17.027344 27.117188 17.972656 27.117188 18.34375 26.5625C19.835938 24.335938 22.328125 23 25 23C27.671875 23 30.164063 24.335938 31.65625 26.5625C32.027344 27.117188 32.972656 27.117188 33.34375 26.5625C34.835938 24.335938 37.328125 23 40 23C44.019531 23 47.21875 26.621094 47.25 26.65625C47.4375 26.871094 47.695313 26.992188 47.96875 27C48.511719 27.011719 49.03125 26.570313 49.03125 26C49.03125 25.929688 49.015625 25.847656 49 25.78125C48.894531 13.449219 39.3125 4.464844 26 4.03125L26 1C26.011719 0.710938 25.894531 0.433594 25.6875 0.238281C25.476563 0.0390625 25.191406 -0.0585938 24.90625 -0.03125 Z M 24 25L24 32.8125C23.992188 32.875 23.992188 32.9375 24 33L24 43C24 45.773438 21.773438 48 19 48C16.226563 48 14 45.773438 14 43C14.003906 42.640625 13.816406 42.304688 13.503906 42.121094C13.191406 41.941406 12.808594 41.941406 12.496094 42.121094C12.183594 42.304688 11.996094 42.640625 12 43C12 46.855469 15.144531 50 19 50C22.855469 50 26 46.855469 26 43L26 33C26.007813 32.9375 26.007813 32.875 26 32.8125L26 25Z" fill="#FFFFFF" />
</svg>