<svg xmlns="http://www.w3.org/2000/svg" viewBox="0 0 50 50">
  <path d="M22.5 5C16.710938 5 12 9.710938 12 15.5C12 15.664063 11.988281 15.832031 12 16C7.589844 16 4 19.589844 4 24C4 28.410156 7.589844 32 12 32L36 32C41.515625 32 46 27.515625 46 22C46 16.484375 41.515625 12 36 12C34.820313 12 33.6875 12.195313 32.59375 12.59375C31.328125 8.121094 27.261719 5 22.5 5 Z M 15 35C14.746094 35 14.476563 35.085938 14.28125 35.28125L12.28125 37.28125C11.890625 37.671875 11.890625 38.328125 12.28125 38.71875C12.476563 38.914063 12.742188 39 13 39C13.257813 39 13.523438 38.914063 13.71875 38.71875L15.71875 36.71875C16.109375 36.328125 16.109375 35.671875 15.71875 35.28125C15.523438 35.085938 15.253906 35 15 35 Z M 34 35C33.746094 35 33.476563 35.085938 33.28125 35.28125L31.28125 37.28125C30.890625 37.671875 30.890625 38.328125 31.28125 38.71875C31.476563 38.914063 31.742188 39 32 39C32.257813 39 32.523438 38.914063 32.71875 38.71875L34.71875 36.71875C35.109375 36.328125 35.109375 35.671875 34.71875 35.28125C34.523438 35.085938 34.253906 35 34 35 Z M 24 39C23.746094 39 23.476563 39.085938 23.28125 39.28125L21.28125 41.28125C20.890625 41.671875 20.890625 42.328125 21.28125 42.71875C21.476563 42.914063 21.742188 43 22 43C22.257813 43 22.523438 42.914063 22.71875 42.71875L24.71875 40.71875C25.109375 40.328125 25.109375 39.671875 24.71875 39.28125C24.523438 39.085938 24.253906 39 24 39Z" fill="#FFFFFF" />
</svg>