<svg xmlns="http://www.w3.org/2000/svg" viewBox="0 0 50 50">
  <path d="M22.5 4C16.710938 4 12 8.710938 12 14.5C12 14.664063 11.988281 14.832031 12 15C7.589844 15 4 18.589844 4 23C4 27.410156 7.589844 31 12 31L21.125 31L25 26L31 26L26 31L36 31C41.515625 31 46 26.515625 46 21C46 15.484375 41.515625 11 36 11C34.820313 11 33.6875 11.195313 32.59375 11.59375C31.328125 7.121094 27.261719 4 22.5 4 Z M 26 31L21.125 31L18 35L23 35L17.9375 43L29 33L24 33 Z M 12 34C11.746094 34 11.476563 34.085938 11.28125 34.28125L7.28125 38.28125C6.890625 38.671875 6.890625 39.328125 7.28125 39.71875C7.476563 39.914063 7.742188 40 8 40C8.257813 40 8.523438 39.914063 8.71875 39.71875L12.71875 35.71875C13.109375 35.328125 13.109375 34.671875 12.71875 34.28125C12.523438 34.085938 12.253906 34 12 34 Z M 36 35C35.746094 35 35.476563 35.085938 35.28125 35.28125L31.28125 39.28125C30.890625 39.671875 30.890625 40.328125 31.28125 40.71875C31.476563 40.914063 31.742188 41 32 41C32.257813 41 32.523438 40.914063 32.71875 40.71875L36.71875 36.71875C37.109375 36.328125 37.109375 35.671875 36.71875 35.28125C36.523438 35.085938 36.253906 35 36 35Z" fill="#FFFFFF" />
</svg>